<svg width="191" height="41" viewBox="0 0 191 41" fill="none" xmlns="http://www.w3.org/2000/svg">
<mask id="mask0_96_84" style="mask-type:luminance" maskUnits="userSpaceOnUse" x="31" y="0" width="160" height="41">
<path d="M31.1165 0H190.991V40.81H31.1165V0Z" fill="white"/>
</mask>
<g mask="url(#mask0_96_84)">
<path fill-rule="evenodd" clip-rule="evenodd" d="M32.9133 0.0722961C38.0737 5.01796 41.2883 11.9774 41.2883 19.6884C41.2883 28.219 37.3528 35.8314 31.202 40.81H178.588C185.254 40.81 190.66 35.4063 190.66 28.7405V12.1439C190.66 5.47813 185.254 0.0722961 178.588 0.0722961H32.9133Z" fill="#FC5F0F"/>
</g>
<path d="M12.4466 8.29773C12.8549 8.29773 13.2611 8.31899 13.6672 8.35727C14.0734 8.39768 14.4753 8.45722 14.8751 8.53803C15.2749 8.61671 15.6704 8.71666 16.0596 8.83362C16.4509 8.9527 16.8337 9.0888 17.21 9.24616C17.5864 9.4014 17.9543 9.57578 18.3137 9.76717C18.6731 9.96068 19.0219 10.1691 19.3621 10.3966C19.7002 10.622 20.0277 10.8645 20.3424 11.1239C20.6572 11.3812 20.9591 11.6555 21.2483 11.9426C21.5354 12.2318 21.8097 12.5338 22.0671 12.8485C22.3265 13.1632 22.5689 13.4907 22.7965 13.8288C23.0219 14.1691 23.2303 14.5178 23.4238 14.8772C23.6152 15.2366 23.7895 15.6045 23.9448 15.9809C24.1021 16.3573 24.2382 16.7422 24.3573 17.1314C24.4764 17.5205 24.5742 17.916 24.6529 18.3158C24.7337 18.7156 24.7933 19.1197 24.8337 19.5237C24.872 19.9299 24.8932 20.336 24.8932 20.7443C24.8932 21.1526 24.872 21.5588 24.8337 21.965C24.7933 22.369 24.7337 22.7731 24.6529 23.1728C24.5742 23.5726 24.4764 23.9682 24.3573 24.3573C24.2382 24.7465 24.1021 25.1314 23.9448 25.5078C23.7895 25.8842 23.6152 26.2521 23.4238 26.6114C23.2303 26.9708 23.0219 27.3196 22.7965 27.6598C22.5689 27.9979 22.3265 28.3254 22.0671 28.6402C21.8097 28.9549 21.5354 29.2569 21.2483 29.5439C20.9591 29.8331 20.6572 30.1075 20.3424 30.3648C20.0277 30.6242 19.7002 30.8666 19.3621 31.0921C19.0219 31.3196 18.6731 31.528 18.3137 31.7215C17.9543 31.9129 17.5864 32.0873 17.21 32.2425C16.8337 32.3999 16.4509 32.536 16.0596 32.6551C15.6704 32.772 15.2749 32.872 14.8751 32.9506C14.4753 33.0315 14.0734 33.091 13.6672 33.1314C13.2611 33.1697 12.8549 33.1909 12.4466 33.1909C12.0383 33.1909 11.6321 33.1697 11.226 33.1314C10.8219 33.091 10.4179 33.0315 10.0181 32.9506C9.61832 32.872 9.22491 32.772 8.83363 32.6551C8.44447 32.536 8.06169 32.3999 7.68317 32.2425C7.30677 32.0873 6.93888 31.9129 6.5795 31.7215C6.22011 31.528 5.87136 31.3196 5.53324 31.0921C5.193 30.8666 4.86551 30.6242 4.55078 30.3648C4.23606 30.1075 3.93409 29.8331 3.64701 29.5439C3.3578 29.2569 3.0856 28.9549 2.82616 28.6402C2.56673 28.3254 2.3243 27.9979 2.09889 27.6598C1.87135 27.3196 1.66295 26.9708 1.47156 26.6114C1.27805 26.2521 1.10367 25.8842 0.948435 25.5078C0.793198 25.1314 0.654973 24.7465 0.535887 24.3573C0.418927 23.9682 0.31898 23.5726 0.240298 23.1728C0.15949 22.7731 0.0999474 22.369 0.0616695 21.965C0.0212658 21.5588 0 21.1526 0 20.7443C0 20.336 0.0212658 19.9299 0.0616695 19.5237C0.0999474 19.1197 0.15949 18.7156 0.240298 18.3158C0.31898 17.916 0.418927 17.5205 0.535887 17.1314C0.654973 16.7422 0.793198 16.3573 0.948435 15.9809C1.10367 15.6045 1.27805 15.2366 1.47156 14.8772C1.66295 14.5178 1.87135 14.1691 2.09889 13.8288C2.3243 13.4907 2.56673 13.1632 2.82616 12.8485C3.0856 12.5338 3.3578 12.2318 3.64701 11.9426C3.93409 11.6555 4.23606 11.3812 4.55078 11.1239C4.86551 10.8645 5.193 10.622 5.53324 10.3966C5.87136 10.1691 6.22011 9.96068 6.5795 9.76717C6.93888 9.57578 7.30677 9.4014 7.68317 9.24616C8.06169 9.0888 8.44447 8.9527 8.83363 8.83362C9.22491 8.71666 9.61832 8.61671 10.0181 8.53803C10.4179 8.45722 10.8219 8.39768 11.226 8.35727C11.6321 8.31899 12.0383 8.29773 12.4466 8.29773Z" fill="#FC5F0F"/>
</svg>
