<svg width="24" height="24" viewBox="0 0 24 24" fill="none" xmlns="http://www.w3.org/2000/svg">
<path d="M3 8.70709H4.77985C6.93172 8.70709 8.00766 8.70709 8.87921 9.1634C9.25172 9.35843 9.59114 9.61098 9.88499 9.91173C10.5725 10.6154 10.8817 11.646 11.5 13.7071V13.7071C12.1183 15.7682 12.4275 16.7988 13.115 17.5025C13.4089 17.8032 13.7483 18.0558 14.1208 18.2508C14.9923 18.7071 16.0683 18.7071 18.2202 18.7071H21M21 18.7071L18 15.7071M21 18.7071L18 21.7071" stroke="#FC5F0F" stroke-width="2"/>
<path fill-rule="evenodd" clip-rule="evenodd" d="M21.7071 8L18.7071 5L17.2929 6.41421L18.5858 7.70711H18.2202L18.1753 7.70711H18.1753C17.1374 7.70709 16.2935 7.70708 15.6025 7.76801C14.8846 7.83131 14.2534 7.96522 13.657 8.2775C13.2113 8.5108 12.8036 8.80995 12.4474 9.16474C12.6883 9.55841 12.8778 9.96592 13.0406 10.3745C13.1539 10.6585 13.2635 10.9679 13.3726 11.2983C13.5242 10.9831 13.6695 10.7752 13.8303 10.6106C14.0507 10.385 14.3052 10.1956 14.5846 10.0493C14.8597 9.9053 15.2022 9.81106 15.7782 9.76028C16.3711 9.70801 17.1267 9.70711 18.2202 9.70711H18.5858L17.2929 11L18.7071 12.4142L21.7071 9.41421L22.4142 8.70711L21.7071 8ZM10.5526 18.2495C10.3117 17.8558 10.1222 17.4483 9.95935 17.0397C9.8461 16.7557 9.73651 16.4463 9.62739 16.1159C9.4758 16.4311 9.33053 16.639 9.16971 16.8036C8.94933 17.0292 8.69476 17.2186 8.41538 17.3649C8.14027 17.5089 7.79776 17.6032 7.22182 17.6539C6.62893 17.7062 5.87329 17.7071 4.77985 17.7071H3V19.7071H4.77985H4.8247H4.82472C5.86257 19.7071 6.70648 19.7071 7.39748 19.6462C8.11537 19.5829 8.7466 19.449 9.34305 19.1367C9.78866 18.9034 10.1964 18.6043 10.5526 18.2495Z" fill="#FC5F0F"/>
</svg>
