<svg width="26" height="25" viewBox="0 0 26 25" fill="none" xmlns="http://www.w3.org/2000/svg">
<path fill-rule="evenodd" clip-rule="evenodd" d="M24.9999 15.2902H19.9233C18.0593 15.289 16.5485 13.7793 16.5474 11.9154C16.5474 10.0514 18.0593 8.54167 19.9233 8.54053H24.9999" fill="#FC5F0F"/>
<path d="M24.9999 15.2902H19.9233C18.0593 15.289 16.5485 13.7793 16.5474 11.9154C16.5474 10.0514 18.0593 8.54167 19.9233 8.54053H24.9999" stroke="white" stroke-width="2" stroke-linecap="round" stroke-linejoin="round"/>
<path d="M20.4982 11.8383H20.1069" stroke="white" stroke-width="2" stroke-linecap="round" stroke-linejoin="round"/>
<path fill-rule="evenodd" clip-rule="evenodd" d="M7.58051 1H18.4193C22.0535 1 24.9998 3.94626 24.9998 7.58051V16.5804C24.9998 20.2147 22.0535 23.1609 18.4193 23.1609H7.58051C3.94626 23.1609 1 20.2147 1 16.5804V7.58051C1 3.94626 3.94626 1 7.58051 1Z" fill="#FC5F0F" stroke="white" stroke-width="2" stroke-linecap="round" stroke-linejoin="round"/>
<path d="M6.68848 6.69067H13.4588" stroke="white" stroke-width="2" stroke-linecap="round" stroke-linejoin="round"/>
</svg>
